<svg xmlns="http://www.w3.org/2000/svg" xmlns:xlink="http://www.w3.org/1999/xlink" width="383" zoomAndPan="magnify" viewBox="0 0 287.25 187.499995" height="250" preserveAspectRatio="xMidYMid meet" version="1.0"><defs><g/><clipPath id="ec14ebc45c"><path d="M 33.816406 6.222656 L 256.71875 6.222656 L 256.71875 101.21875 L 33.816406 101.21875 Z M 33.816406 6.222656 " clip-rule="nonzero"/></clipPath></defs><g clip-path="url(#ec14ebc45c)"><path fill="#ffffff" d="M 183.144531 77.511719 C 183.148438 77.488281 183.15625 77.460938 183.160156 77.441406 C 183.171875 77.445312 183.175781 77.457031 183.1875 77.46875 Z M 180.429688 51.039062 C 180.289062 50.886719 180.136719 50.742188 179.984375 50.605469 C 182.703125 46.546875 185.414062 42.480469 188.148438 38.4375 C 188.546875 37.855469 189.039062 36.964844 189.558594 36.90625 C 195.203125 36.304688 197.625 32.003906 200.273438 27.03125 C 202.644531 30.523438 204.90625 33.378906 206.636719 36.527344 C 208.382812 39.710938 210.863281 41.46875 214.3125 42.226562 C 215.90625 42.570312 217.511719 42.925781 218.472656 44.632812 C 226.132812 58.308594 236.667969 68.761719 252.679688 73.832031 C 248.539062 74.882812 233.035156 69.347656 229.226562 65.917969 C 228.191406 69.097656 227.179688 72.179688 226.171875 75.265625 C 226.007812 75.230469 225.839844 75.199219 225.675781 75.171875 C 225.132812 71.324219 224.625 67.46875 224.042969 63.632812 C 223.84375 62.3125 224.199219 60.484375 222.0625 60.441406 C 220.265625 60.402344 218.261719 59.582031 216.964844 61.824219 C 216.210938 63.128906 215.246094 64.292969 215.304688 66.503906 C 211.699219 61.5625 214.425781 56.921875 214.160156 52 C 209.300781 51.097656 204.839844 47.382812 198.949219 49.824219 C 199.917969 48.433594 200.871094 47.039062 201.84375 45.65625 C 205.273438 40.777344 205.273438 40.777344 201.507812 35.398438 C 197.289062 38.355469 191.605469 39.609375 190.484375 45.949219 C 190.140625 47.878906 188.261719 48.183594 187.015625 48.753906 C 185.664062 48.5 187.085938 46.894531 185.429688 46.941406 C 183.460938 47.710938 182.503906 50.089844 180.429688 51.039062 Z M 186.179688 47.136719 C 187.203125 46.769531 187.808594 46.367188 186.949219 45.230469 C 186.613281 45.796875 185.722656 45.886719 186.179688 47.136719 Z M 51.714844 80.714844 C 51.585938 80.554688 51.445312 80.414062 51.296875 80.273438 C 56.050781 75.425781 60.8125 70.589844 65.550781 65.734375 C 67.25 63.988281 69.582031 64.375 71.613281 64.09375 C 73.808594 63.785156 75.320312 62.898438 76.710938 61.265625 C 79.328125 58.199219 82.101562 55.261719 84.910156 52.152344 C 89.167969 55.554688 92.445312 59.730469 97.085938 62.921875 C 99.457031 60.09375 101.917969 57.382812 104.117188 54.476562 C 106.574219 51.21875 109.539062 48.820312 113.523438 47.78125 C 115.480469 47.273438 116.761719 46.089844 117.75 44.289062 C 119.8125 40.527344 122.183594 36.933594 124.261719 33.175781 C 125.914062 30.195312 127.519531 27.304688 132.035156 27.101562 C 129.46875 22.191406 133.074219 19.925781 135.554688 17.203125 C 138.820312 13.609375 142.125 10.058594 145.605469 6.289062 C 147.574219 10.292969 149.511719 13.855469 151.105469 17.570312 C 153.113281 22.265625 156.179688 25.871094 160.769531 28.125 C 165.785156 30.578125 169.1875 34.371094 171.46875 39.53125 C 173.714844 44.625 176.632812 49.421875 179.214844 54.359375 C 179.734375 55.355469 180.414062 56.148438 181.402344 56.640625 C 187.886719 59.871094 192.429688 65.183594 196.816406 70.738281 C 201.023438 76.054688 205.414062 81.230469 209.757812 86.457031 C 209.449219 86.457031 209.132812 86.460938 208.824219 86.460938 C 208.425781 86.460938 208.035156 86.449219 207.644531 86.449219 C 205.578125 84.777344 203.476562 83.132812 201.613281 81.25 C 198.195312 77.789062 194.511719 75.691406 189.230469 77.894531 C 188.925781 79.070312 188.535156 80.480469 189.308594 82.210938 C 189.71875 83.113281 189.789062 84.179688 189.582031 85.390625 C 189.109375 85.335938 188.636719 85.285156 188.152344 85.222656 C 186.082031 80.484375 186.480469 74.960938 182.710938 70.921875 C 182.140625 73.386719 183.71875 75.335938 183.160156 77.433594 C 179.652344 74.472656 176.691406 70.921875 172.640625 68.5 C 170.558594 67.253906 168.683594 65.734375 166.273438 65.070312 C 157.632812 62.691406 150.398438 57.507812 142.734375 53.1875 C 141.003906 52.210938 140.199219 50.328125 139.34375 48.671875 C 137.96875 46.019531 136.046875 44.894531 133.0625 45.15625 C 131.234375 45.320312 129.359375 45.03125 126.734375 44.910156 C 131.308594 40.070312 135.164062 35.707031 139.34375 31.6875 C 141.621094 29.5 145.066406 30.773438 147.957031 29.871094 C 149.148438 24.90625 147.09375 21.199219 143.320312 17.902344 C 140.746094 21.71875 136.40625 24.105469 135 28.824219 C 134.941406 29.019531 134.707031 29.234375 134.5 29.304688 C 127.257812 31.839844 125.375 38.972656 121.683594 44.476562 C 119.097656 48.335938 117.164062 52.644531 110.605469 53.226562 C 122.917969 60.035156 134.972656 65.628906 141.632812 77.054688 C 139.972656 76.734375 138.304688 76.417969 136.640625 76.117188 C 131.359375 72.242188 125.613281 69.101562 119.398438 66.90625 C 118.683594 66.648438 117.761719 66.878906 116.957031 67.023438 C 115.785156 67.234375 114.65625 67.6875 113.484375 67.855469 C 109.183594 68.460938 105.125 69.449219 101.980469 71.984375 L 96.988281 71.875 C 95.144531 71.882812 93.320312 71.914062 91.59375 71.980469 C 90.894531 72 90.191406 72.035156 89.5 72.066406 C 91.4375 70.449219 93.277344 68.65625 94.550781 66.144531 C 91.898438 64.015625 89.167969 61.828125 86.15625 59.414062 C 84.9375 62.980469 85.644531 66.078125 87.375 69.886719 C 82.328125 68.3125 79.542969 70.492188 77.042969 73.210938 C 75.054688 73.496094 73.128906 73.816406 71.265625 74.183594 C 71.140625 73.734375 71.015625 73.277344 70.886719 72.789062 C 69.21875 73.683594 67.65625 74.527344 66.070312 75.378906 C 65.234375 75.601562 64.417969 75.828125 63.609375 76.066406 C 63.472656 75.046875 63.351562 74.109375 63.179688 72.800781 C 59.207031 75.539062 55.460938 78.125 51.714844 80.714844 Z M 156.992188 42.832031 C 164.835938 52.878906 174.15625 60.679688 186.421875 65.015625 C 186.5625 63.648438 186 63.332031 185.5 63.082031 C 179.34375 60.039062 175.554688 54.789062 172.109375 49.113281 C 169.171875 44.277344 162.992188 41.828125 156.992188 42.832031 Z M 251.527344 80.597656 C 249.78125 82.265625 247.917969 83.785156 245.960938 85.132812 C 242.023438 87.816406 237.753906 89.875 233.292969 91.3125 C 224.359375 94.191406 214.835938 94.738281 205.484375 93.984375 C 200.800781 93.613281 196.132812 92.886719 191.535156 91.910156 C 189.238281 91.417969 186.960938 90.835938 184.746094 90.195312 L 177.847656 88.03125 L 174.300781 86.917969 C 173.121094 86.542969 171.925781 86.246094 170.738281 85.902344 C 168.355469 85.246094 165.976562 84.5625 163.582031 83.925781 C 161.183594 83.320312 158.773438 82.753906 156.367188 82.167969 C 153.960938 81.585938 151.527344 81.121094 149.105469 80.589844 C 129.691406 76.640625 109.683594 74.769531 89.785156 76.269531 C 79.851562 77.070312 69.957031 78.703125 60.40625 81.550781 C 55.640625 83 50.949219 84.6875 46.457031 86.8125 C 44.214844 87.882812 42.011719 89.023438 39.871094 90.273438 C 37.761719 91.558594 35.671875 92.902344 33.808594 94.515625 C 35.976562 93.359375 38.207031 92.386719 40.484375 91.542969 C 42.753906 90.679688 45.050781 89.914062 47.375 89.234375 C 52.015625 87.890625 56.71875 86.832031 61.457031 86.015625 C 70.933594 84.394531 80.519531 83.683594 90.101562 83.601562 C 109.277344 83.503906 128.394531 85.914062 147.25 89.710938 C 156.6875 91.574219 166.0625 93.90625 175.359375 96.453125 L 182.527344 98.402344 C 185.027344 99.03125 187.519531 99.503906 190.027344 99.917969 C 195.03125 100.742188 200.089844 101.171875 205.164062 101.230469 C 210.234375 101.269531 215.332031 100.914062 220.347656 100.003906 C 225.355469 99.089844 230.300781 97.652344 234.9375 95.515625 C 239.566406 93.375 243.890625 90.574219 247.550781 87.105469 C 249.378906 85.375 251.058594 83.507812 252.554688 81.523438 C 254.03125 79.519531 255.359375 77.429688 256.464844 75.230469 C 254.921875 77.136719 253.296875 78.953125 251.527344 80.597656 Z M 251.527344 80.597656 " fill-opacity="1" fill-rule="nonzero"/></g><g fill="#ffffff" fill-opacity="1"><g transform="translate(32.679464, 160.410507)"><g><path d="M 6.21875 -31.625 L 0.515625 -31.625 L 0.515625 -37.828125 L 20.265625 -37.828125 L 20.265625 -31.625 L 14.625 -31.625 L 14.625 0 L 6.21875 0 Z M 6.21875 -31.625 "/></g></g></g><g fill="#ffffff" fill-opacity="1"><g transform="translate(53.457537, 160.410507)"><g><path d="M 8.125 -37.828125 L 17.65625 -37.828125 L 24.703125 0 L 17 0 L 15.734375 -7.984375 L 10.1875 -7.984375 L 8.875 0 L 0.984375 0 Z M 14.9375 -12.984375 L 12.9375 -27.734375 L 10.921875 -12.984375 Z M 14.9375 -12.984375 "/></g></g></g><g fill="#ffffff" fill-opacity="1"><g transform="translate(79.184987, 160.410507)"><g><path d="M 13.640625 0.5625 C 9.523438 0.5625 6.601562 -0.519531 4.875 -2.6875 C 3.144531 -4.851562 2.28125 -7.972656 2.28125 -12.046875 L 2.28125 -25.6875 C 2.28125 -29.851562 3.132812 -33.003906 4.84375 -35.140625 C 6.5625 -37.273438 9.492188 -38.34375 13.640625 -38.34375 C 17.585938 -38.34375 20.382812 -37.390625 22.03125 -35.484375 C 23.6875 -33.585938 24.515625 -30.898438 24.515625 -27.421875 L 24.515625 -24.140625 L 16.34375 -24.140625 L 16.34375 -27.921875 C 16.34375 -29.390625 16.1875 -30.507812 15.875 -31.28125 C 15.5625 -32.0625 14.816406 -32.453125 13.640625 -32.453125 C 12.453125 -32.453125 11.671875 -32.039062 11.296875 -31.21875 C 10.921875 -30.394531 10.734375 -29.25 10.734375 -27.78125 L 10.734375 -10 C 10.734375 -8.5 10.925781 -7.351562 11.3125 -6.5625 C 11.707031 -5.769531 12.484375 -5.375 13.640625 -5.375 C 14.785156 -5.375 15.519531 -5.769531 15.84375 -6.5625 C 16.175781 -7.351562 16.34375 -8.5 16.34375 -10 L 16.34375 -13.96875 L 24.515625 -13.96875 L 24.515625 -10.6875 C 24.515625 -7.144531 23.6875 -4.382812 22.03125 -2.40625 C 20.382812 -0.425781 17.585938 0.5625 13.640625 0.5625 Z M 13.640625 0.5625 "/></g></g></g><g fill="#ffffff" fill-opacity="1"><g transform="translate(105.472755, 160.410507)"><g><path d="M 13.640625 0.5625 C 9.554688 0.5625 6.640625 -0.488281 4.890625 -2.59375 C 3.148438 -4.695312 2.28125 -7.800781 2.28125 -11.90625 L 2.28125 -25.96875 C 2.28125 -30.070312 3.148438 -33.160156 4.890625 -35.234375 C 6.640625 -37.304688 9.554688 -38.34375 13.640625 -38.34375 C 17.742188 -38.34375 20.675781 -37.296875 22.4375 -35.203125 C 24.195312 -33.117188 25.078125 -30.039062 25.078125 -25.96875 L 25.078125 -11.90625 C 25.078125 -7.800781 24.195312 -4.695312 22.4375 -2.59375 C 20.675781 -0.488281 17.742188 0.5625 13.640625 0.5625 Z M 13.640625 -5.375 C 14.816406 -5.375 15.59375 -5.769531 15.96875 -6.5625 C 16.34375 -7.351562 16.53125 -8.4375 16.53125 -9.8125 L 16.53125 -28.015625 C 16.53125 -29.421875 16.34375 -30.507812 15.96875 -31.28125 C 15.59375 -32.0625 14.816406 -32.453125 13.640625 -32.453125 C 12.515625 -32.453125 11.765625 -32.054688 11.390625 -31.265625 C 11.015625 -30.472656 10.828125 -29.390625 10.828125 -28.015625 L 10.828125 -9.8125 C 10.828125 -8.4375 11 -7.351562 11.34375 -6.5625 C 11.6875 -5.769531 12.453125 -5.375 13.640625 -5.375 Z M 13.640625 -5.375 "/></g></g></g><g fill="#ffffff" fill-opacity="1"><g transform="translate(132.834435, 160.410507)"><g><path d="M 6.21875 -31.625 L 0.515625 -31.625 L 0.515625 -37.828125 L 20.265625 -37.828125 L 20.265625 -31.625 L 14.625 -31.625 L 14.625 0 L 6.21875 0 Z M 6.21875 -31.625 "/></g></g></g><g fill="#ffffff" fill-opacity="1"><g transform="translate(153.612507, 160.410507)"><g><path d="M 8.125 -37.828125 L 17.65625 -37.828125 L 24.703125 0 L 17 0 L 15.734375 -7.984375 L 10.1875 -7.984375 L 8.875 0 L 0.984375 0 Z M 14.9375 -12.984375 L 12.9375 -27.734375 L 10.921875 -12.984375 Z M 14.9375 -12.984375 "/></g></g></g><g fill="#ffffff" fill-opacity="1"><g transform="translate(179.339957, 160.410507)"><g><path d="M 12.84375 0.5625 C 9.226562 0.5625 6.539062 -0.394531 4.78125 -2.3125 C 3.019531 -4.226562 2.082031 -7.269531 1.96875 -11.4375 L 9.109375 -12.515625 C 9.140625 -10.117188 9.425781 -8.398438 9.96875 -7.359375 C 10.507812 -6.316406 11.328125 -5.796875 12.421875 -5.796875 C 13.828125 -5.796875 14.53125 -6.710938 14.53125 -8.546875 C 14.53125 -10.003906 14.191406 -11.265625 13.515625 -12.328125 C 12.847656 -13.390625 11.800781 -14.523438 10.375 -15.734375 L 7.09375 -18.59375 C 5.476562 -19.957031 4.226562 -21.410156 3.34375 -22.953125 C 2.457031 -24.492188 2.015625 -26.320312 2.015625 -28.4375 C 2.015625 -31.613281 2.953125 -34.054688 4.828125 -35.765625 C 6.710938 -37.484375 9.304688 -38.34375 12.609375 -38.34375 C 16.191406 -38.34375 18.628906 -37.296875 19.921875 -35.203125 C 21.210938 -33.117188 21.90625 -30.582031 22 -27.59375 L 14.8125 -26.71875 C 14.75 -28.675781 14.566406 -30.082031 14.265625 -30.9375 C 13.972656 -31.789062 13.328125 -32.21875 12.328125 -32.21875 C 11.609375 -32.21875 11.054688 -31.914062 10.671875 -31.3125 C 10.285156 -30.707031 10.09375 -30.03125 10.09375 -29.28125 C 10.09375 -28.007812 10.378906 -26.9375 10.953125 -26.0625 C 11.523438 -25.1875 12.453125 -24.191406 13.734375 -23.078125 L 16.859375 -20.3125 C 18.722656 -18.726562 20.171875 -17.046875 21.203125 -15.265625 C 22.234375 -13.492188 22.75 -11.394531 22.75 -8.96875 C 22.75 -7.195312 22.332031 -5.585938 21.5 -4.140625 C 20.675781 -2.691406 19.515625 -1.546875 18.015625 -0.703125 C 16.523438 0.140625 14.800781 0.5625 12.84375 0.5625 Z M 12.84375 0.5625 "/></g></g></g><g fill="#ffffff" fill-opacity="1"><g transform="translate(203.339795, 160.410507)"><g><path d="M 2.796875 -37.828125 L 11.15625 -37.828125 L 11.15625 -22.375 L 17.515625 -37.828125 L 25.6875 -37.828125 L 18.6875 -20.734375 L 26.015625 0 L 17.515625 0 L 12.046875 -16.71875 L 11.15625 -15.21875 L 11.15625 0 L 2.796875 0 Z M 2.796875 -37.828125 "/></g></g></g><g fill="#ffffff" fill-opacity="1"><g transform="translate(229.814331, 160.410507)"><g><path d="M 12.84375 0.5625 C 9.226562 0.5625 6.539062 -0.394531 4.78125 -2.3125 C 3.019531 -4.226562 2.082031 -7.269531 1.96875 -11.4375 L 9.109375 -12.515625 C 9.140625 -10.117188 9.425781 -8.398438 9.96875 -7.359375 C 10.507812 -6.316406 11.328125 -5.796875 12.421875 -5.796875 C 13.828125 -5.796875 14.53125 -6.710938 14.53125 -8.546875 C 14.53125 -10.003906 14.191406 -11.265625 13.515625 -12.328125 C 12.847656 -13.390625 11.800781 -14.523438 10.375 -15.734375 L 7.09375 -18.59375 C 5.476562 -19.957031 4.226562 -21.410156 3.34375 -22.953125 C 2.457031 -24.492188 2.015625 -26.320312 2.015625 -28.4375 C 2.015625 -31.613281 2.953125 -34.054688 4.828125 -35.765625 C 6.710938 -37.484375 9.304688 -38.34375 12.609375 -38.34375 C 16.191406 -38.34375 18.628906 -37.296875 19.921875 -35.203125 C 21.210938 -33.117188 21.90625 -30.582031 22 -27.59375 L 14.8125 -26.71875 C 14.75 -28.675781 14.566406 -30.082031 14.265625 -30.9375 C 13.972656 -31.789062 13.328125 -32.21875 12.328125 -32.21875 C 11.609375 -32.21875 11.054688 -31.914062 10.671875 -31.3125 C 10.285156 -30.707031 10.09375 -30.03125 10.09375 -29.28125 C 10.09375 -28.007812 10.378906 -26.9375 10.953125 -26.0625 C 11.523438 -25.1875 12.453125 -24.191406 13.734375 -23.078125 L 16.859375 -20.3125 C 18.722656 -18.726562 20.171875 -17.046875 21.203125 -15.265625 C 22.234375 -13.492188 22.75 -11.394531 22.75 -8.96875 C 22.75 -7.195312 22.332031 -5.585938 21.5 -4.140625 C 20.675781 -2.691406 19.515625 -1.546875 18.015625 -0.703125 C 16.523438 0.140625 14.800781 0.5625 12.84375 0.5625 Z M 12.84375 0.5625 "/></g></g></g><g fill="#ffffff" fill-opacity="1"><g transform="translate(59.882791, 176.049655)"><g><path d="M 3.484375 -2.484375 L 0.375 -2.484375 L 0.375 -3.5 L 3.484375 -3.5 Z M 3.484375 -2.484375 "/></g></g></g><g fill="#ffffff" fill-opacity="1"><g transform="translate(67.415648, 176.049655)"><g/></g></g><g fill="#ffffff" fill-opacity="1"><g transform="translate(74.314413, 176.049655)"><g><path d="M 6.359375 -7.71875 C 6.628906 -7.488281 6.832031 -7.210938 6.96875 -6.890625 C 7.113281 -6.578125 7.1875 -6.253906 7.1875 -5.921875 C 7.1875 -5.015625 6.859375 -4.320312 6.203125 -3.84375 C 5.765625 -3.519531 5.09375 -3.359375 4.1875 -3.359375 L 1.984375 -3.359375 L 1.984375 0 L 0.890625 0 L 0.890625 -8.25 L 4.171875 -8.25 C 4.703125 -8.25 5.132812 -8.210938 5.46875 -8.140625 C 5.800781 -8.066406 6.097656 -7.925781 6.359375 -7.71875 Z M 6.046875 -5.90625 C 6.046875 -6.070312 6.003906 -6.253906 5.921875 -6.453125 C 5.847656 -6.648438 5.742188 -6.8125 5.609375 -6.9375 C 5.453125 -7.070312 5.273438 -7.160156 5.078125 -7.203125 C 4.878906 -7.253906 4.613281 -7.28125 4.28125 -7.28125 L 1.984375 -7.28125 L 1.984375 -4.328125 L 4.171875 -4.328125 C 4.804688 -4.328125 5.273438 -4.453125 5.578125 -4.703125 C 5.890625 -4.960938 6.046875 -5.363281 6.046875 -5.90625 Z M 6.046875 -5.90625 "/></g></g></g><g fill="#ffffff" fill-opacity="1"><g transform="translate(85.697967, 176.049655)"><g><path d="M 1.953125 -0.96875 L 6.03125 -0.96875 L 6.03125 0 L 0.859375 0 L 0.859375 -8.25 L 1.953125 -8.25 Z M 1.953125 -0.96875 "/></g></g></g><g fill="#ffffff" fill-opacity="1"><g transform="translate(95.801794, 176.049655)"><g><path d="M 7.71875 0 L 6.46875 0 L 5.5 -2.515625 L 2.046875 -2.515625 L 1.15625 0 L -0.015625 0 L 3.15625 -8.25 L 4.328125 -8.25 Z M 3.28125 -5.8125 L 2.375 -3.390625 L 5.171875 -3.390625 L 4.15625 -6.109375 C 4.03125 -6.429688 3.882812 -6.859375 3.71875 -7.390625 C 3.71875 -7.347656 3.671875 -7.148438 3.578125 -6.796875 C 3.492188 -6.453125 3.394531 -6.125 3.28125 -5.8125 Z M 3.28125 -5.8125 "/></g></g></g><g fill="#ffffff" fill-opacity="1"><g transform="translate(107.185347, 176.049655)"><g><path d="M 6.359375 -1.78125 L 6.359375 -8.25 L 7.421875 -8.25 L 7.421875 0 L 6.296875 0 L 1.953125 -6.484375 L 1.953125 0 L 0.90625 0 L 0.90625 -8.25 L 2.03125 -8.25 Z M 6.359375 -1.78125 "/></g></g></g><g fill="#ffffff" fill-opacity="1"><g transform="translate(119.202994, 176.049655)"><g/></g></g><g fill="#ffffff" fill-opacity="1"><g transform="translate(126.101759, 176.049655)"><g><path d="M 1.390625 -8.25 L 2.015625 -7.265625 C 2.191406 -6.984375 2.40625 -6.660156 2.65625 -6.296875 C 3.21875 -5.460938 3.613281 -4.820312 3.84375 -4.375 C 4.082031 -4.769531 4.382812 -5.253906 4.75 -5.828125 L 6.359375 -8.25 L 7.625 -8.25 L 4.328125 -3.5 L 4.328125 0 L 3.234375 0 L 3.234375 -3.5 L 0.0625 -8.25 Z M 1.390625 -8.25 "/></g></g></g><g fill="#ffffff" fill-opacity="1"><g transform="translate(137.485313, 176.049655)"><g><path d="M 4.34375 -8.390625 C 5.164062 -8.390625 5.882812 -8.210938 6.5 -7.859375 C 7.125 -7.503906 7.601562 -7.003906 7.9375 -6.359375 C 8.269531 -5.710938 8.4375 -4.960938 8.4375 -4.109375 C 8.4375 -3.265625 8.265625 -2.519531 7.921875 -1.875 C 7.585938 -1.226562 7.125 -0.726562 6.53125 -0.375 C 5.9375 -0.03125 5.273438 0.140625 4.546875 0.140625 C 3.742188 0.140625 3.039062 -0.0390625 2.4375 -0.40625 C 1.832031 -0.78125 1.363281 -1.285156 1.03125 -1.921875 C 0.707031 -2.554688 0.546875 -3.257812 0.546875 -4.03125 C 0.546875 -4.90625 0.707031 -5.671875 1.03125 -6.328125 C 1.363281 -6.992188 1.816406 -7.503906 2.390625 -7.859375 C 2.972656 -8.210938 3.625 -8.390625 4.34375 -8.390625 Z M 1.671875 -4 C 1.671875 -3.363281 1.789062 -2.800781 2.03125 -2.3125 C 2.269531 -1.832031 2.601562 -1.457031 3.03125 -1.1875 C 3.457031 -0.925781 3.941406 -0.796875 4.484375 -0.796875 C 5.046875 -0.796875 5.539062 -0.925781 5.96875 -1.1875 C 6.394531 -1.457031 6.722656 -1.84375 6.953125 -2.34375 C 7.191406 -2.84375 7.3125 -3.429688 7.3125 -4.109375 C 7.3125 -4.785156 7.191406 -5.378906 6.953125 -5.890625 C 6.722656 -6.398438 6.394531 -6.785156 5.96875 -7.046875 C 5.550781 -7.316406 5.070312 -7.453125 4.53125 -7.453125 C 3.625 -7.453125 2.921875 -7.148438 2.421875 -6.546875 C 1.921875 -5.941406 1.671875 -5.09375 1.671875 -4 Z M 1.671875 -4 "/></g></g></g><g fill="#ffffff" fill-opacity="1"><g transform="translate(150.148593, 176.049655)"><g><path d="M 2 -3.375 C 2 -2.664062 2.078125 -2.15625 2.234375 -1.84375 C 2.378906 -1.539062 2.601562 -1.296875 2.90625 -1.109375 C 3.21875 -0.929688 3.617188 -0.84375 4.109375 -0.84375 C 4.773438 -0.84375 5.269531 -0.972656 5.59375 -1.234375 C 5.914062 -1.503906 6.113281 -1.804688 6.1875 -2.140625 C 6.269531 -2.484375 6.3125 -2.890625 6.3125 -3.359375 L 6.3125 -8.25 L 7.40625 -8.25 L 7.40625 -3.390625 C 7.40625 -2.972656 7.378906 -2.570312 7.328125 -2.1875 C 7.273438 -1.800781 7.128906 -1.429688 6.890625 -1.078125 C 6.628906 -0.703125 6.285156 -0.40625 5.859375 -0.1875 C 5.429688 0.03125 4.863281 0.140625 4.15625 0.140625 C 3.476562 0.140625 2.929688 0.0390625 2.515625 -0.15625 C 2.097656 -0.363281 1.75 -0.640625 1.46875 -0.984375 C 1.226562 -1.296875 1.070312 -1.660156 1 -2.078125 C 0.9375 -2.492188 0.90625 -2.925781 0.90625 -3.375 L 0.90625 -8.25 L 2 -8.25 Z M 2 -3.375 "/></g></g></g><g fill="#ffffff" fill-opacity="1"><g transform="translate(162.16624, 176.049655)"><g><path d="M 6.71875 -7.765625 C 7 -7.535156 7.203125 -7.265625 7.328125 -6.953125 C 7.460938 -6.640625 7.53125 -6.320312 7.53125 -6 C 7.53125 -5.394531 7.335938 -4.898438 6.953125 -4.515625 C 6.566406 -4.128906 5.984375 -3.878906 5.203125 -3.765625 C 5.503906 -3.617188 5.769531 -3.425781 6 -3.1875 C 6.238281 -2.957031 6.492188 -2.632812 6.765625 -2.21875 L 8.203125 0 L 6.828125 0 L 5.765625 -1.65625 C 5.398438 -2.238281 5.109375 -2.660156 4.890625 -2.921875 C 4.671875 -3.191406 4.441406 -3.378906 4.203125 -3.484375 C 3.972656 -3.597656 3.679688 -3.65625 3.328125 -3.65625 L 2.015625 -3.65625 L 2.015625 0 L 0.921875 0 L 0.921875 -8.25 L 4.71875 -8.25 C 5.195312 -8.25 5.585938 -8.210938 5.890625 -8.140625 C 6.203125 -8.066406 6.476562 -7.941406 6.71875 -7.765625 Z M 5.921875 -4.984375 C 6.085938 -5.109375 6.207031 -5.257812 6.28125 -5.4375 C 6.363281 -5.625 6.40625 -5.8125 6.40625 -6 C 6.40625 -6.476562 6.226562 -6.820312 5.875 -7.03125 C 5.53125 -7.238281 5.128906 -7.34375 4.671875 -7.34375 L 2.015625 -7.34375 L 2.015625 -4.625 L 4.484375 -4.625 C 4.867188 -4.625 5.160156 -4.648438 5.359375 -4.703125 C 5.566406 -4.765625 5.753906 -4.859375 5.921875 -4.984375 Z M 5.921875 -4.984375 "/></g></g></g><g fill="#ffffff" fill-opacity="1"><g transform="translate(174.183887, 176.049655)"><g/></g></g><g fill="#ffffff" fill-opacity="1"><g transform="translate(181.082652, 176.049655)"><g><path d="M 6.046875 -7.828125 C 6.609375 -7.503906 7.03125 -7.023438 7.3125 -6.390625 C 7.601562 -5.765625 7.75 -5.03125 7.75 -4.1875 C 7.75 -3.488281 7.644531 -2.832031 7.4375 -2.21875 C 7.226562 -1.613281 6.910156 -1.132812 6.484375 -0.78125 C 6.171875 -0.519531 5.820312 -0.320312 5.4375 -0.1875 C 5.050781 -0.0625 4.570312 0 4 0 L 0.921875 0 L 0.921875 -8.25 L 3.921875 -8.25 C 4.398438 -8.25 4.800781 -8.21875 5.125 -8.15625 C 5.445312 -8.101562 5.753906 -7.992188 6.046875 -7.828125 Z M 6.625 -4.203125 C 6.625 -5.035156 6.488281 -5.679688 6.21875 -6.140625 C 5.957031 -6.597656 5.644531 -6.898438 5.28125 -7.046875 C 4.925781 -7.203125 4.476562 -7.28125 3.9375 -7.28125 L 2.015625 -7.28125 L 2.015625 -0.96875 L 3.828125 -0.96875 C 4.367188 -0.96875 4.820312 -1.03125 5.1875 -1.15625 C 5.550781 -1.28125 5.878906 -1.582031 6.171875 -2.0625 C 6.472656 -2.539062 6.625 -3.253906 6.625 -4.203125 Z M 6.625 -4.203125 "/></g></g></g><g fill="#ffffff" fill-opacity="1"><g transform="translate(193.100299, 176.049655)"><g><path d="M 7.71875 0 L 6.46875 0 L 5.5 -2.515625 L 2.046875 -2.515625 L 1.15625 0 L -0.015625 0 L 3.15625 -8.25 L 4.328125 -8.25 Z M 3.28125 -5.8125 L 2.375 -3.390625 L 5.171875 -3.390625 L 4.15625 -6.109375 C 4.03125 -6.429688 3.882812 -6.859375 3.71875 -7.390625 C 3.71875 -7.347656 3.671875 -7.148438 3.578125 -6.796875 C 3.492188 -6.453125 3.394531 -6.125 3.28125 -5.8125 Z M 3.28125 -5.8125 "/></g></g></g><g fill="#ffffff" fill-opacity="1"><g transform="translate(204.483853, 176.049655)"><g><path d="M 1.390625 -8.25 L 2.015625 -7.265625 C 2.191406 -6.984375 2.40625 -6.660156 2.65625 -6.296875 C 3.21875 -5.460938 3.613281 -4.820312 3.84375 -4.375 C 4.082031 -4.769531 4.382812 -5.253906 4.75 -5.828125 L 6.359375 -8.25 L 7.625 -8.25 L 4.328125 -3.5 L 4.328125 0 L 3.234375 0 L 3.234375 -3.5 L 0.0625 -8.25 Z M 1.390625 -8.25 "/></g></g></g><g fill="#ffffff" fill-opacity="1"><g transform="translate(215.867406, 176.049655)"><g/></g></g><g fill="#ffffff" fill-opacity="1"><g transform="translate(222.766171, 176.049655)"><g><path d="M 3.484375 -2.484375 L 0.375 -2.484375 L 0.375 -3.5 L 3.484375 -3.5 Z M 3.484375 -2.484375 "/></g></g></g></svg>